# xmcd
#
# Track frame offsets: 
#        150
#        16427
#        29320
#        46927
#        58852
#        72952
#        93067
#        108862
#        122417
#        142355
#        156525
#        167645
#
# Disc length: 2467 seconds
#
# Revision: 2
# Processed by: cddbd v1.5.1PL0 Copyright (c) Steve Scherf et al.
# Submitted via: ExactAudioCopy v0.95b2
#
DISCID=a109a10c
DTITLE=Pancho Barraza - El Vagabundo Que Te Ama
DYEAR=1998
DGENRE=Ranchero
TTITLE0=Por Amor Y Fe
TTITLE1=Muchachita Labios Rojos
TTITLE2=Mi Enemigo El Amor
TTITLE3=Ojala Sea Cierto
TTITLE4=De Frente Al Mar
TTITLE5=Aquella Morena
TTITLE6=Al Final De Tu Camino
TTITLE7=Historia De Amores
TTITLE8=Una Lagrima De Orgullo
TTITLE9=Mi Triste Copa
TTITLE10=El Vagabundo Que Te Ama
TTITLE11=Dale, Dale
EXTD=
EXTT0=
EXTT1=
EXTT2=
EXTT3=
EXTT4=
EXTT5=
EXTT6=
EXTT7=
EXTT8=
EXTT9=
EXTT10=
EXTT11=
PLAYORDER=
